{
  "accessors": [
    {
      "bufferView": 2,
      "componentType": 5126,
      "count": 24,
      "max": [
        38.099998474121094,
        0.7620000243186951,
        30.479999542236328
      ],
      "min": [
        -38.099998474121094,
        -0.7620000243186951,
        -30.479999542236328
      ],
      "type": "VEC3"
    },
    {
      "bufferView": 2,
      "byteOffset": 288,
      "componentType": 5126,
      "count": 24,
      "max": [
        1.0,
        1.0,
        1.0
      ],
      "min": [
        -1.0,
        -1.0,
        -1.0
      ],
      "type": "VEC3"
    },
    {
      "bufferView": 1,
      "componentType": 5126,
      "count": 24,
      "max": [
        1.0,
        1.0
      ],
      "min": [
        0.0,
        0.0
      ],
      "type": "VEC2"
    },
    {
      "bufferView": 0,
      "componentType": 5125,
      "count": 36,
      "type": "SCALAR"
    },
    {
      "bufferView": 2,
      "byteOffset": 576,
      "componentType": 5126,
      "count": 323,
      "max": [
        16.0,
        16.0,
        16.0
      ],
      "min": [
        -16.0,
        -16.0,
        -16.0
      ],
      "type": "VEC3"
    },
    {
      "bufferView": 2,
      "byteOffset": 4452,
      "componentType": 5126,
      "count": 323,
      "max": [
        1.0,
        1.0,
        1.0
      ],
      "min": [
        -1.0,
        -1.0,
        -1.0
      ],
      "type": "VEC3"
    },
    {
      "bufferView": 1,
      "byteOffset": 192,
      "componentType": 5126,
      "count": 323,
      "max": [
        0.9999998211860657,
        1.0
      ],
      "min": [
        0.0,
        1.7881393432617188e-07
      ],
      "type": "VEC2"
    },
    {
      "bufferView": 0,
      "byteOffset": 144,
      "componentType": 5125,
      "count": 1584,
      "type": "SCALAR"
    },
    {
      "bufferView": 2,
      "byteOffset": 8328,
      "componentType": 5126,
      "count": 323,
      "max": [
        10.0,
        10.0,
        10.0
      ],
      "min": [
        -10.0,
        -10.0,
        -10.0
      ],
      "type": "VEC3"
    },
    {
      "bufferView": 2,
      "byteOffset": 12204,
      "componentType": 5126,
      "count": 323,
      "max": [
        1.0,
        1.0,
        1.0
      ],
      "min": [
        -1.0,
        -1.0,
        -1.0
      ],
      "type": "VEC3"
    },
    {
      "bufferView": 1,
      "byteOffset": 2776,
      "componentType": 5126,
      "count": 323,
      "max": [
        0.9999998211860657,
        1.0
      ],
      "min": [
        0.0,
        1.7881393432617188e-07
      ],
      "type": "VEC2"
    },
    {
      "bufferView": 0,
      "byteOffset": 6480,
      "componentType": 5125,
      "count": 1584,
      "type": "SCALAR"
    },
    {
      "bufferView": 2,
      "byteOffset": 16080,
      "componentType": 5126,
      "count": 323,
      "max": [
        12.0,
        12.0,
        12.0
      ],
      "min": [
        -12.0,
        -12.0,
        -12.0
      ],
      "type": "VEC3"
    },
    {
      "bufferView": 2,
      "byteOffset": 19956,
      "componentType": 5126,
      "count": 323,
      "max": [
        1.0,
        1.0,
        1.0
      ],
      "min": [
        -1.0,
        -1.0,
        -1.0
      ],
      "type": "VEC3"
    },
    {
      "bufferView": 1,
      "byteOffset": 5360,
      "componentType": 5126,
      "count": 323,
      "max": [
        0.9999998211860657,
        1.0
      ],
      "min": [
        0.0,
        1.7881393432617188e-07
      ],
      "type": "VEC2"
    },
    {
      "bufferView": 0,
      "byteOffset": 12816,
      "componentType": 5125,
      "count": 1584,
      "type": "SCALAR"
    },
    {
      "bufferView": 2,
      "byteOffset": 23832,
      "componentType": 5126,
      "count": 323,
      "max": [
        8.0,
        8.0,
        8.0
      ],
      "min": [
        -8.0,
        -8.0,
        -8.0
      ],
      "type": "VEC3"
    },
    {
      "bufferView": 2,
      "byteOffset": 27708,
      "componentType": 5126,
      "count": 323,
      "max": [
        1.0,
        1.0,
        1.0
      ],
      "min": [
        -1.0,
        -1.0,
        -1.0
      ],
      "type": "VEC3"
    },
    {
      "bufferView": 1,
      "byteOffset": 7944,
      "componentType": 5126,
      "count": 323,
      "max": [
        0.9999998211860657,
        1.0
      ],
      "min": [
        0.0,
        1.7881393432617188e-07
      ],
      "type": "VEC2"
    },
    {
      "bufferView": 0,
      "byteOffset": 19152,
      "componentType": 5125,
      "count": 1584,
      "type": "SCALAR"
    },
    {
      "bufferView": 2,
      "byteOffset": 31584,
      "componentType": 5126,
      "count": 323,
      "max": [
        4.0,
        4.0,
        4.0
      ],
      "min": [
        -4.0,
        -4.0,
        -4.0
      ],
      "type": "VEC3"
    },
    {
      "bufferView": 2,
      "byteOffset": 35460,
      "componentType": 5126,
      "count": 323,
      "max": [
        1.0,
        1.0,
        1.0
      ],
      "min": [
        -1.0,
        -1.0,
        -1.0
      ],
      "type": "VEC3"
    },
    {
      "bufferView": 1,
      "byteOffset": 10528,
      "componentType": 5126,
      "count": 323,
      "max": [
        0.9999998211860657,
        1.0
      ],
      "min": [
        0.0,
        1.7881393432617188e-07
      ],
      "type": "VEC2"
    },
    {
      "bufferView": 0,
      "byteOffset": 25488,
      "componentType": 5125,
      "count": 1584,
      "type": "SCALAR"
    },
    {
      "bufferView": 3,
      "componentType": 5126,
      "count": 45,
      "max": [
        1.4666666984558105
      ],
      "min": [
        0.0
      ],
      "type": "SCALAR"
    },
    {
      "bufferView": 4,
      "componentType": 5126,
      "count": 45,
      "max": [
        1.0,
        1.0,
        1.0
      ],
      "min": [
        0.009999990463256836,
        0.009999990463256836,
        0.009999990463256836
      ],
      "type": "VEC3"
    },
    {
      "bufferView": 3,
      "byteOffset": 180,
      "componentType": 5126,
      "count": 12,
      "max": [
        1.4666666984558105
      ],
      "min": [
        0.0
      ],
      "type": "SCALAR"
    },
    {
      "bufferView": 4,
      "byteOffset": 540,
      "componentType": 5126,
      "count": 12,
      "max": [
        1.0,
        1.0,
        1.0
      ],
      "min": [
        0.009999990463256836,
        0.009999990463256836,
        0.009999990463256836
      ],
      "type": "VEC3"
    },
    {
      "bufferView": 3,
      "byteOffset": 228,
      "componentType": 5126,
      "count": 17,
      "max": [
        1.4666666984558105
      ],
      "min": [
        0.0
      ],
      "type": "SCALAR"
    },
    {
      "bufferView": 4,
      "byteOffset": 684,
      "componentType": 5126,
      "count": 17,
      "max": [
        1.0,
        1.0,
        1.0
      ],
      "min": [
        0.009999990463256836,
        0.009999990463256836,
        0.009999990463256836
      ],
      "type": "VEC3"
    },
    {
      "bufferView": 3,
      "byteOffset": 296,
      "componentType": 5126,
      "count": 22,
      "max": [
        1.4666666984558105
      ],
      "min": [
        0.0
      ],
      "type": "SCALAR"
    },
    {
      "bufferView": 4,
      "byteOffset": 888,
      "componentType": 5126,
      "count": 22,
      "max": [
        1.0,
        1.0,
        1.0
      ],
      "min": [
        0.009999990463256836,
        0.009999990463256836,
        0.009999990463256836
      ],
      "type": "VEC3"
    },
    {
      "bufferView": 3,
      "byteOffset": 384,
      "componentType": 5126,
      "count": 27,
      "max": [
        1.4666666984558105
      ],
      "min": [
        0.0
      ],
      "type": "SCALAR"
    },
    {
      "bufferView": 4,
      "byteOffset": 1152,
      "componentType": 5126,
      "count": 27,
      "max": [
        1.0,
        1.0,
        1.0
      ],
      "min": [
        0.009999990463256836,
        0.009999990463256836,
        0.009999990463256836
      ],
      "type": "VEC3"
    },
    {
      "bufferView": 3,
      "byteOffset": 492,
      "componentType": 5126,
      "count": 32,
      "max": [
        1.4666666984558105
      ],
      "min": [
        0.0
      ],
      "type": "SCALAR"
    },
    {
      "bufferView": 4,
      "byteOffset": 1476,
      "componentType": 5126,
      "count": 32,
      "max": [
        1.0,
        1.0,
        1.0
      ],
      "min": [
        0.009999990463256836,
        0.009999990463256836,
        0.009999990463256836
      ],
      "type": "VEC3"
    }
  ],
  "animations": [
    {
      "channels": [
        {
          "sampler": 0,
          "target": {
            "node": 4,
            "path": "scale"
          }
        },
        {
          "sampler": 1,
          "target": {
            "node": 6,
            "path": "scale"
          }
        },
        {
          "sampler": 2,
          "target": {
            "node": 8,
            "path": "scale"
          }
        },
        {
          "sampler": 3,
          "target": {
            "node": 10,
            "path": "scale"
          }
        },
        {
          "sampler": 4,
          "target": {
            "node": 12,
            "path": "scale"
          }
        },
        {
          "sampler": 5,
          "target": {
            "node": 14,
            "path": "scale"
          }
        }
      ],
      "name": "Take 001",
      "samplers": [
        {
          "input": 24,
          "interpolation": "LINEAR",
          "output": 25
        },
        {
          "input": 26,
          "interpolation": "LINEAR",
          "output": 27
        },
        {
          "input": 28,
          "interpolation": "LINEAR",
          "output": 29
        },
        {
          "input": 30,
          "interpolation": "LINEAR",
          "output": 31
        },
        {
          "input": 32,
          "interpolation": "LINEAR",
          "output": 33
        },
        {
          "input": 34,
          "interpolation": "LINEAR",
          "output": 35
        }
      ]
    }
  ],
  "asset": {
    "extras": {
      "author": "Dreamerz Lab (https://sketchfab.com/dreamerzlab)",
      "license": "COPYRIGHT TO Dreamerz Lab",
      "source": "https://sketchfab.com/3d-models/video-player-stage-753564b6742e4312bc13620bdbde5126",
      "title": "Video Player Stage"
    },
    "generator": "Sketchfab-16.56.0",
    "version": "2.0"
  },
  "bufferViews": [
    {
      "buffer": 0,
      "byteLength": 31824,
      "name": "floatBufferViews",
      "target": 34963
    },
    {
      "buffer": 0,
      "byteLength": 13112,
      "byteOffset": 31824,
      "byteStride": 8,
      "name": "floatBufferViews",
      "target": 34962
    },
    {
      "buffer": 0,
      "byteLength": 39336,
      "byteOffset": 44936,
      "byteStride": 12,
      "name": "floatBufferViews",
      "target": 34962
    },
    {
      "buffer": 0,
      "byteLength": 620,
      "byteOffset": 84272,
      "name": "floatBufferViews"
    },
    {
      "buffer": 0,
      "byteLength": 1860,
      "byteOffset": 84892,
      "byteStride": 12,
      "name": "floatBufferViews"
    }
  ],
  "buffers": [
    {
      "byteLength": 86752,
      "uri": "scene.bin"
    }
  ],
  "materials": [
    {
      "alphaMode": "BLEND",
      "doubleSided": true,
      "name": "Mirror_MAT",
      "pbrMetallicRoughness": {
        "baseColorFactor": [
          1.0,
          1.0,
          1.0,
          0.38889312339950294
        ],
        "metallicFactor": 0.22447853069098564,
        "roughnessFactor": 0.11486880221864078
      }
    },
    {
      "doubleSided": true,
      "name": "Bubbles_MAT",
      "pbrMetallicRoughness": {
        "baseColorFactor": [
          0.0806027285406219,
          0.670827694071222,
          1.0,
          1.0
        ],
        "metallicFactor": 0.0,
        "roughnessFactor": 0.06006393798246835
      }
    }
  ],
  "meshes": [
    {
      "name": "Mirror_Mirror_MAT_0",
      "primitives": [
        {
          "attributes": {
            "NORMAL": 1,
            "POSITION": 0,
            "TEXCOORD_0": 2
          },
          "indices": 3,
          "material": 0,
          "mode": 4
        }
      ]
    },
    {
      "name": "Sphere001_Bubbles_MAT_0",
      "primitives": [
        {
          "attributes": {
            "NORMAL": 5,
            "POSITION": 4,
            "TEXCOORD_0": 6
          },
          "indices": 7,
          "material": 1,
          "mode": 4
        }
      ]
    },
    {
      "name": "Sphere002_Bubbles_MAT_0",
      "primitives": [
        {
          "attributes": {
            "NORMAL": 9,
            "POSITION": 8,
            "TEXCOORD_0": 10
          },
          "indices": 11,
          "material": 1,
          "mode": 4
        }
      ]
    },
    {
      "name": "Sphere003_Bubbles_MAT_0",
      "primitives": [
        {
          "attributes": {
            "NORMAL": 13,
            "POSITION": 12,
            "TEXCOORD_0": 14
          },
          "indices": 15,
          "material": 1,
          "mode": 4
        }
      ]
    },
    {
      "name": "Sphere004_Bubbles_MAT_0",
      "primitives": [
        {
          "attributes": {
            "NORMAL": 17,
            "POSITION": 16,
            "TEXCOORD_0": 18
          },
          "indices": 19,
          "material": 1,
          "mode": 4
        }
      ]
    },
    {
      "name": "Sphere005_Bubbles_MAT_0",
      "primitives": [
        {
          "attributes": {
            "NORMAL": 21,
            "POSITION": 20,
            "TEXCOORD_0": 22
          },
          "indices": 23,
          "material": 1,
          "mode": 4
        }
      ]
    }
  ],
  "nodes": [
    {
      "children": [
        1
      ],
      "matrix": [
        1.0,
        0.0,
        0.0,
        0.0,
        0.0,
        2.220446049250313e-16,
        -1.0,
        0.0,
        0.0,
        1.0,
        2.220446049250313e-16,
        0.0,
        0.0,
        0.0,
        0.0,
        1.0
      ],
      "name": "Sketchfab_model"
    },
    {
      "children": [
        2
      ],
      "matrix": [
        0.009999999776482582,
        0.0,
        0.0,
        0.0,
        0.0,
        0.0,
        0.009999999776482582,
        0.0,
        0.0,
        -0.009999999776482582,
        0.0,
        0.0,
        0.0,
        0.0,
        0.0,
        1.0
      ],
      "name": "0ff996a22c124ef5bacb363383455874.fbx"
    },
    {
      "children": [
        3
      ],
      "name": "Object_2"
    },
    {
      "children": [
        4,
        6,
        8,
        10,
        12,
        14
      ],
      "name": "RootNode"
    },
    {
      "children": [
        5
      ],
      "name": "Mirror",
      "rotation": [
        -0.7071068286895752,
        -0.0,
        0.0,
        0.7071068286895752
      ],
      "scale": [
        0.009999999776482582,
        0.009999999776482582,
        0.009999999776482582
      ],
      "translation": [
        0.0,
        0.0,
        -0.8439570069313049
      ]
    },
    {
      "mesh": 0,
      "name": "Mirror_Mirror_MAT_0"
    },
    {
      "children": [
        7
      ],
      "name": "Sphere001",
      "rotation": [
        -0.7071068286895752,
        -0.0,
        0.0,
        0.7071068286895752
      ],
      "scale": [
        0.009999999776482582,
        0.009999999776482582,
        0.009999999776482582
      ],
      "translation": [
        52.89072799682617,
        36.49188232421875,
        -37.47609329223633
      ]
    },
    {
      "mesh": 1,
      "name": "Sphere001_Bubbles_MAT_0"
    },
    {
      "children": [
        9
      ],
      "name": "Sphere002",
      "rotation": [
        -0.7071068286895752,
        -0.0,
        0.0,
        0.7071068286895752
      ],
      "scale": [
        0.009999999776482582,
        0.009999999776482582,
        0.009999999776482582
      ],
      "translation": [
        -26.427593231201172,
        30.00070571899414,
        -60.81940460205078
      ]
    },
    {
      "mesh": 2,
      "name": "Sphere002_Bubbles_MAT_0"
    },
    {
      "children": [
        11
      ],
      "name": "Sphere003",
      "rotation": [
        -0.7071068286895752,
        -0.0,
        0.0,
        0.7071068286895752
      ],
      "scale": [
        0.009999999776482582,
        0.009999999776482582,
        0.009999999776482582
      ],
      "translation": [
        -41.15758514404297,
        -42.41463088989258,
        -38.62835693359375
      ]
    },
    {
      "mesh": 3,
      "name": "Sphere003_Bubbles_MAT_0"
    },
    {
      "children": [
        13
      ],
      "name": "Sphere004",
      "rotation": [
        -0.7071068286895752,
        -0.0,
        0.0,
        0.7071068286895752
      ],
      "scale": [
        0.009999999776482582,
        0.009999999776482582,
        0.009999999776482582
      ],
      "translation": [
        22.566604614257813,
        -38.85373306274414,
        -17.741849899291992
      ]
    },
    {
      "mesh": 4,
      "name": "Sphere004_Bubbles_MAT_0"
    },
    {
      "children": [
        15
      ],
      "name": "Sphere005",
      "rotation": [
        -0.7071068286895752,
        -0.0,
        0.0,
        0.7071068286895752
      ],
      "scale": [
        0.009999999776482582,
        0.009999999776482582,
        0.009999999776482582
      ],
      "translation": [
        0.2875843048095703,
        -5.752702713012695,
        -79.04069519042969
      ]
    },
    {
      "mesh": 5,
      "name": "Sphere005_Bubbles_MAT_0"
    }
  ],
  "scene": 0,
  "scenes": [
    {
      "name": "Sketchfab_Scene",
      "nodes": [
        0
      ]
    }
  ]
}
